<?xml version="1.0" encoding="UTF-8"?><svg xmlns="http://www.w3.org/2000/svg" viewBox="0 0 256 256" fill="#dd1405"><path d="M42.68 32.68c13-11.62 28.38-20.62 45.33-26.18 9.38 11.71 23.81 19.21 39.99 19.21s30.61-7.5 39.99-19.21c16.95 5.56 32.33 14.57 45.33 26.18-5.45 13.96-4.73 30.18 3.36 44.17 8.09 14 21.8 22.73 36.64 24.99 1.76 8.44 2.68 17.19 2.68 26.15s-.92 17.71-2.68 26.15c-14.84 2.27-28.55 11-36.64 24.99-8.08 13.99-8.8 30.21-3.36 44.17-13 11.62-28.38 20.62-45.33 26.19-9.38-11.71-23.81-19.21-39.99-19.21s-30.61 7.5-39.99 19.21c-16.95-5.56-32.33-14.57-45.33-26.19 5.45-13.96 4.73-30.18-3.36-44.17-8.09-14-21.8-22.73-36.64-24.99C.92 145.7-0 136.95-0 127.99s.92-17.71 2.68-26.15c14.84-2.26 28.55-11 36.64-24.99 8.08-13.99 8.8-30.21 3.36-44.17ZM147.2 161.22c18.37-10.59 24.66-34.05 14.06-52.4-10.6-18.35-34.09-24.63-52.46-14.04s-24.66 34.05-14.06 52.4c10.6 18.35 34.09 24.63 52.46 14.04Z"/></svg>