<?xml version="1.0" encoding="UTF-8"?><svg id="a" xmlns="http://www.w3.org/2000/svg" viewBox="0 0 256 256"><rect width="256" height="256" style="fill:#1a1f26;"/><path d="M75.27,69.09c8.03-7.18,17.54-12.74,28.02-16.18,5.8,7.24,14.72,11.87,24.72,11.87s18.92-4.64,24.72-11.87c10.48,3.44,19.98,9,28.02,16.18-3.37,8.63-2.92,18.65,2.08,27.3,5,8.65,13.47,14.05,22.65,15.44,1.09,5.22,1.66,10.62,1.66,16.16s-.57,10.95-1.66,16.16c-9.17,1.4-17.65,6.8-22.65,15.44-4.99,8.65-5.44,18.67-2.08,27.3-8.03,7.18-17.54,12.74-28.02,16.19-5.8-7.24-14.72-11.87-24.72-11.87s-18.92,4.64-24.72,11.87c-10.48-3.44-19.98-9-28.02-16.19,3.37-8.63,2.92-18.65-2.08-27.3-5-8.65-13.47-14.05-22.65-15.44-1.09-5.22-1.66-10.62-1.66-16.16s.57-10.95,1.66-16.16c9.17-1.4,17.65-6.8,22.65-15.44,4.99-8.65,5.44-18.67,2.08-27.3ZM139.87,148.53c11.35-6.55,15.24-21.04,8.69-32.39-6.55-11.34-21.07-15.22-32.42-8.68s-15.24,21.04-8.69,32.39c6.55,11.34,21.07,15.22,32.42,8.68h0Z" style="fill:#dd1405;"/></svg>